PathFileType	4	(X/Y/Z)	c:/Users/goper/Files/vsCode/490R/osim_files/A05/A05_Slow_04.trc
DataRate	CameraRate	NumFrames	NumMarkers	Units                	OrigDataRate	OrigDataStartFrame	OrigNumFrames
250.00	250.00	9	36	mm	250.0	1535	3068
                Frame#	Time	LPSIS			LASIS			LTH1			LTH2			LTH3			LTH4			LLFE			LMFE			LSH1			LSH2			LSH3			LSH4			LLMAL			LMMAL			LCAL			LMTP5			LTOE			LMTP1			RPSIS			RASIS			RTH1			RTH2			RTH3			RTH4			RLFE			RMFE			RSH1			RSH2			RSH3			RSH4			RLMAL			RMMAL			RCAL			RMTP1			RTOE			RMTP5		
		X1	Y1	Z1	X2	Y2	Z2	X3	Y3	Z3	X4	Y4	Z4	X5	Y5	Z5	X6	Y6	Z6	X7	Y7	Z7	X8	Y8	Z8	X9	Y9	Z9	X10	Y10	Z10	X11	Y11	Z11	X12	Y12	Z12	X13	Y13	Z13	X14	Y14	Z14	X15	Y15	Z15	X16	Y16	Z16	X17	Y17	Z17	X18	Y18	Z18	X19	Y19	Z19	X20	Y20	Z20	X21	Y21	Z21	X22	Y22	Z22	X23	Y23	Z23	X24	Y24	Z24	X25	Y25	Z25	X26	Y26	Z26	X27	Y27	Z27	X28	Y28	Z28	X29	Y29	Z29	X30	Y30	Z30	X31	Y31	Z31	X32	Y32	Z32	X33	Y33	Z33	X34	Y34	Z34	X35	Y35	Z35	X36	Y36	Z36

1535	6.13600	-914.57764	1035.31177	234.05582	-1091.21899	998.22137	368.60565	-989.11963	707.88275	419.28104	-1005.33362	668.70178	424.33023	-1040.78809	726.45197	447.53400	-1050.56470	684.15894	446.33377	-1089.56506	507.38528	436.19168	-1107.84583	500.88394	338.90555	-1000.53857	453.22925	429.49387	-971.79913	419.90219	426.38541	-1044.15625	409.72220	427.80374	-1009.75458	381.34332	426.06427	-848.57764	232.43320	399.08133	-869.93805	228.42282	312.61835	-766.35181	237.29497	325.05692	-901.57928	106.41562	444.86703	-966.62268	88.59000	399.49243	-942.49829	104.39626	343.53018	-932.32593	1034.24548	154.70288	-1124.11658	978.59515	75.16735	-1113.03333	603.86609	29.14292	-1124.66809	564.84357	42.89943	-1166.82275	620.96704	54.98011	-1171.09399	562.15405	77.86258	-1103.59595	527.57581	45.04424	-1122.60559	508.25912	187.48764	-1071.39478	265.24103	50.70152	-1069.82544	218.57353	61.92590	-1132.34473	258.44672	61.90829	-1120.72864	210.68620	67.66761	-1066.60022	109.29359	86.89983	-1115.78186	135.56302	170.92450	-1018.03162	71.24004	168.09055	-1230.95630	55.49914	163.56923	-1261.55298	64.03288	107.73973	-1191.94141	44.42463	48.60403
1536	6.14000	-916.61365	1035.20593	233.42168	-1093.40369	998.27960	368.35245	-992.42554	707.96521	419.00345	-1008.98114	668.75879	424.16061	-1044.06714	726.77014	447.48340	-1054.14172	684.48865	446.27643	-1094.14587	507.96771	436.32782	-1112.71851	501.59268	339.07852	-1006.17419	451.95233	426.54468	-977.24268	419.26312	426.33414	-1049.63062	410.07642	428.04581	-1015.77277	381.15891	426.17160	-855.90240	230.61859	398.95889	-877.53906	226.74083	312.59454	-773.86432	234.63797	324.83636	-910.07886	104.96740	445.12662	-975.32452	87.92776	399.86111	-951.21130	103.47571	343.78195	-934.92462	1034.38147	154.39726	-1127.55652	979.34833	75.15714	-1114.54187	603.83539	29.00580	-1126.25647	564.80804	42.77602	-1168.28674	620.79077	54.76223	-1172.73071	562.22583	77.66021	-1104.93286	527.56653	44.95934	-1123.98560	508.20496	187.34218	-1071.92053	265.33826	50.65178	-1070.28845	218.64017	61.92455	-1132.86743	258.35938	61.86842	-1121.05579	210.62546	67.72504	-1066.86353	108.95578	87.11790	-1116.11230	135.86209	171.18214	-1018.09229	71.27614	168.09854	-1231.02686	55.46829	163.55067	-1261.35657	63.79581	107.73662	-1192.03589	44.39120	48.63615
1537	6.14400	-919.08740	1035.39478	233.13387	-1095.48450	998.33441	367.73535	-995.96057	707.79437	418.81400	-1012.55420	668.85577	424.02341	-1047.28870	726.95880	447.37909	-1057.56372	684.79095	446.26257	-1098.64038	508.52637	436.40048	-1117.33459	502.18521	339.17487	-1011.00592	452.24808	428.90305	-982.68781	418.59628	426.31409	-1055.25647	410.00021	427.95346	-1021.54083	380.92502	426.23166	-863.32794	228.70610	398.91974	-885.19910	224.93538	312.56140	-781.32465	231.84088	324.64447	-918.65833	103.68116	445.34668	-984.17218	87.23469	400.11993	-960.07092	102.52152	344.12149	-937.52448	1034.52148	154.12897	-1130.07849	979.43976	74.94426	-1116.03162	603.79889	28.86382	-1127.57715	564.74426	42.67773	-1169.89026	620.57764	54.55420	-1174.06970	561.99274	77.52980	-1106.24573	527.54486	44.89703	-1125.38770	508.10501	187.17888	-1072.53662	265.38922	50.65783	-1070.66284	218.75885	61.97305	-1132.67151	258.25308	61.88455	-1121.44507	210.57994	67.72827	-1066.99695	108.99071	87.12914	-1115.88757	135.68741	170.87556	-1018.09351	71.29645	168.14159	-1231.01001	55.46760	163.53061	-1261.57227	63.87795	107.71724	-1192.07458	44.35090	48.64607
1538	6.14800	-922.11505	1035.70007	233.15295	-1099.32568	999.29645	368.63107	-999.16150	707.79205	418.56012	-1016.22504	668.85425	423.84006	-1050.42651	727.19507	447.32904	-1061.02319	685.06378	446.18420	-1103.12793	509.04697	436.40707	-1121.78284	502.65909	339.26761	-1016.10382	451.87073	429.00714	-988.12866	417.95526	426.24277	-1060.82947	410.09659	428.13470	-1027.38257	380.63373	426.31931	-870.86005	226.70030	398.90048	-892.29401	223.00436	312.38141	-788.96423	228.86821	324.50540	-927.38818	102.33328	445.57916	-993.19653	86.59158	400.52084	-968.97516	101.45200	344.44897	-940.00031	1034.66785	153.84686	-1132.66968	979.54865	74.73563	-1117.46265	603.79419	28.76876	-1128.89648	564.73340	42.55373	-1171.45984	620.50183	54.35981	-1175.45190	561.80164	77.33232	-1107.48120	527.57745	44.79014	-1126.34509	507.81207	186.95128	-1073.00244	265.46918	50.68645	-1071.07239	218.87973	62.01884	-1133.17944	258.20453	61.91561	-1121.76221	210.54843	67.71729	-1067.13879	109.04662	87.11306	-1116.22620	135.67070	171.01340	-1018.15265	71.31717	168.16893	-1231.04077	55.39808	163.58348	-1261.44617	63.67421	107.73777	-1192.40149	44.19687	48.70350
1539	6.15200	-924.17017	1035.68567	232.57231	-1101.93640	999.68225	368.51785	-1002.69562	707.60632	418.52362	-1019.73022	668.83783	423.66632	-1053.67822	727.45081	447.21579	-1064.41870	685.33258	446.12946	-1107.47363	509.56671	436.44568	-1126.13110	503.14804	339.28970	-1021.44720	450.70453	426.41595	-993.49188	417.18378	426.23486	-1066.25256	410.09595	428.18997	-1033.16663	380.29214	426.41739	-878.45490	224.61906	398.94913	-901.38678	221.12920	313.00732	-796.59320	225.73618	324.40756	-936.25037	100.94331	445.91516	-1001.96271	85.78568	400.91513	-977.85754	100.30178	344.77454	-942.51764	1034.87073	153.61209	-1135.23779	979.69904	74.47694	-1118.91956	603.74597	28.64691	-1130.34204	564.60516	42.50558	-1172.93274	620.31610	54.18715	-1176.89392	561.74957	77.22488	-1108.75732	527.58826	44.78666	-1128.02588	508.03995	187.05653	-1073.51672	265.56693	50.73399	-1071.40271	218.96245	62.06549	-1134.22424	258.13565	61.90747	-1122.11365	210.50456	67.76173	-1067.22363	109.12007	87.12722	-1116.60181	135.94958	171.31493	-1018.16559	71.35872	168.19156	-1231.05750	55.42815	163.55978	-1261.42627	63.63974	107.70112	-1192.35596	43.90289	48.84580
1540	6.15600	-927.14398	1036.01257	232.66479	-1104.37476	999.92688	368.22299	-1005.97437	707.54578	418.25162	-1023.29077	668.86346	423.48642	-1056.88696	727.58173	447.06058	-1067.79468	685.58472	445.97934	-1111.35925	509.55304	436.37500	-1131.15356	503.90610	339.26593	-1026.45288	450.12286	426.30161	-998.81757	416.30240	426.19818	-1071.54578	410.27884	428.39163	-1038.96252	379.88492	426.48877	-885.98566	222.44548	399.09946	-909.15497	219.13814	313.19391	-804.23706	222.56366	324.40112	-945.16437	99.55629	446.26706	-1011.11560	85.02504	401.36664	-987.07874	99.21827	345.18170	-945.05804	1035.05859	153.34427	-1137.79065	979.80383	74.29261	-1120.34998	603.69513	28.53438	-1131.54358	564.59705	42.41039	-1174.53015	620.18524	54.04560	-1178.11194	561.45398	77.15314	-1109.92261	527.60767	44.65100	-1129.38647	508.01117	186.94243	-1074.02014	265.64813	50.84060	-1071.72144	219.04007	62.14013	-1134.83948	258.09857	61.96437	-1122.49719	210.45047	67.80809	-1067.34949	109.19347	87.12997	-1116.74377	135.96776	171.34857	-1018.19592	71.39597	168.24644	-1231.08337	55.42142	163.55453	-1261.63892	63.73117	107.69387	-1192.36768	43.89365	48.84786
1541	6.16000	-929.60992	1036.18591	232.40767	-1106.70850	1000.15985	367.84702	-1009.26953	707.40521	417.91910	-1026.72192	668.84137	423.28107	-1059.98926	727.77655	446.92657	-1071.23071	685.78375	445.87442	-1115.65955	510.01816	436.30420	-1135.63513	504.42526	339.22421	-1031.32312	449.62103	426.30792	-1004.26050	415.44916	426.13135	-1077.08191	410.18472	428.35757	-1044.83093	379.47189	426.55237	-893.65057	220.20557	399.24493	-916.96344	216.92894	313.41489	-812.03418	219.23346	324.47189	-954.31805	98.03719	446.71729	-1020.54053	84.34707	401.87430	-996.16766	98.03536	345.65579	-947.58191	1035.28418	153.08368	-1139.50378	979.26312	73.95557	-1121.78662	603.66357	28.43801	-1132.98987	564.55896	42.31359	-1175.97144	619.99237	53.90242	-1179.59399	561.42224	77.00263	-1111.22791	527.54510	44.68473	-1130.69519	507.97595	186.86096	-1074.48535	265.68884	50.90592	-1072.10486	219.12280	62.21689	-1135.28760	258.00833	62.04271	-1122.87744	210.41382	67.90787	-1067.50549	109.25666	87.13891	-1116.91040	135.98705	171.43210	-1018.21692	71.41679	168.29201	-1231.34509	55.48878	163.50192	-1261.44739	63.55146	107.70065	-1192.16394	43.99844	48.78529
1542	6.16400	-931.61255	1036.12476	231.90871	-1109.31348	1000.54041	367.81366	-1012.53351	707.35797	417.72937	-1030.13123	668.86371	423.08792	-1063.08789	727.90558	446.76099	-1074.47888	685.97717	445.73007	-1119.84375	510.46936	436.20767	-1139.94336	504.89746	339.15222	-1036.18591	449.02817	426.30740	-1009.57819	414.50397	426.16309	-1082.57776	409.97946	428.28101	-1050.47925	379.03635	426.64536	-902.25421	218.19966	399.21780	-924.73175	214.69458	313.53265	-819.82697	215.81129	324.64716	-963.55035	96.53426	447.10178	-1029.83350	83.57784	402.44751	-1005.37311	96.86412	346.18597	-950.10626	1035.49402	152.88718	-1142.10876	979.37708	73.71296	-1123.23987	603.63843	28.36771	-1134.22925	564.46497	42.23684	-1177.33728	619.99109	53.72308	-1180.79321	561.07385	76.95183	-1112.35913	527.63385	44.55023	-1131.99377	507.98102	186.78743	-1074.99133	265.78735	50.96482	-1072.50684	219.17578	62.29733	-1135.67004	257.91910	62.13644	-1123.32507	210.39510	68.03976	-1067.56274	109.36938	87.14365	-1116.82300	135.72032	171.24069	-1018.18311	71.47134	168.32275	-1231.17151	55.37520	163.56194	-1261.47327	63.52184	107.69601	-1192.20703	44.01438	48.80910
1543	6.16800	-933.95172	1036.31104	231.72897	-1111.71326	1000.65930	367.56378	-1015.50330	707.29242	417.34137	-1033.51709	668.84991	422.83267	-1066.32434	728.03052	446.49976	-1077.79370	686.16321	445.51141	-1123.88916	510.86871	436.04413	-1144.13306	505.41235	339.00443	-1040.71521	449.14734	428.72842	-1014.84149	413.51614	426.10703	-1087.88501	409.90683	428.23605	-1056.27026	378.52197	426.70734	-910.03198	215.68672	399.40503	-932.58215	212.51474	313.91043	-827.76196	212.26892	324.90536	-972.80048	95.04774	447.67130	-1039.25696	82.82324	403.02887	-1014.77942	95.74072	346.73508	-952.62091	1035.71887	152.68137	-1145.42932	980.13098	73.79471	-1124.61060	603.64990	28.29809	-1135.61157	564.44727	42.17701	-1178.90454	619.66760	53.70655	-1182.21985	561.07855	76.80992	-1113.66565	527.59607	44.58595	-1133.17163	508.03885	186.75885	-1075.44629	265.89346	51.06011	-1072.95312	219.25676	62.39302	-1136.14673	257.84573	62.29280	-1123.62683	210.37248	68.17255	-1067.67725	109.44008	87.13613	-1117.14282	135.95273	171.58966	-1018.21716	71.46996	168.40004	-1231.15369	55.33117	163.53305	-1261.45923	63.52121	107.66560	-1192.19678	44.03209	48.78134
